# xmcd CD database file generated by OrangeCD 5.2
#
# Track frame offsets:
#	150
#	10427
#	22450
#	30690
#	40882
#	51160
#	63792
#	74225
#	86027
#	97145
#	105595
#	115687
#	127122
#	138882
#	148685
#	160387
#
# Disc length: 2291 seconds
#
# Revision: 1
# Processed by: cddbd v1.5.1PL0 Copyright (c) Steve Scherf et al.
# Submitted via: OrangeCD 5.2
#
DISCID=f008f110
DTITLE=The Beatniks - Elvis Presley Is Alive And Well
DYEAR=1996
DGENRE=Country
TTITLE0=That's All Right
TTITLE1=Good Luck Charm
TTITLE2=(Let Me Be Your) Teddy Bear
TTITLE3=Heartbreak Hotel
TTITLE4=Blue Moon Of Kentucky
TTITLE5=A Fool Such As I
TTITLE6=Baby, Let's Play House
TTITLE7=I Want You, I Need You
TTITLE8=Got A Lot Of Livin' To Do
TTITLE9=As Long As I Have You
TTITLE10=A Big Hunk O' Love
TTITLE11=Fame And Fortune
TTITLE12=I'm Left, You're Right, She's Gone
TTITLE13=Don't Be Cruel
TTITLE14=Mystery Train
TTITLE15=It's So Strange
EXTD=
EXTT0=
EXTT1=
EXTT2=
EXTT3=
EXTT4=
EXTT5=
EXTT6=
EXTT7=
EXTT8=
EXTT9=
EXTT10=
EXTT11=
EXTT12=
EXTT13=
EXTT14=
EXTT15=
PLAYORDER=
